<svg width="72" height="72" viewBox="0 0 72 72" fill="none" xmlns="http://www.w3.org/2000/svg">
<rect width="72" height="72" rx="8" fill="#4F46E5"/>
<rect x="18" y="18" width="6.61225" height="6.61225" rx="1" fill="white"/>
<rect x="25.3469" y="18" width="6.61225" height="6.61225" rx="1" fill="white"/>
<rect x="32.6938" y="18" width="6.61225" height="6.61225" rx="1" fill="white"/>
<rect x="40.0408" y="18" width="6.61225" height="6.61225" rx="1" fill="white"/>
<rect x="47.3878" y="18" width="6.61225" height="6.61225" rx="1" fill="white"/>
<rect x="47.3878" y="25.3469" width="6.61225" height="6.61225" rx="1" fill="white"/>
<rect x="47.3878" y="32.6938" width="6.61225" height="6.61225" rx="1" fill="white"/>
<rect x="40.0408" y="32.6938" width="6.61225" height="6.61225" rx="1" fill="white"/>
<rect x="32.6938" y="32.6938" width="6.61225" height="6.61225" rx="1" fill="white"/>
<rect x="25.3469" y="32.6938" width="6.61225" height="6.61225" rx="1" fill="white"/>
<rect x="18" y="25.3469" width="6.61225" height="6.61225" rx="1" fill="white"/>
<rect x="18" y="32.6938" width="6.61225" height="6.61225" rx="1" fill="white"/>
<rect x="18" y="40.0408" width="6.61225" height="6.61225" rx="1" fill="white"/>
<rect x="18" y="47.3877" width="6.61225" height="6.61225" rx="1" fill="white"/>
</svg>
